# xmcd CD database file
#
# Track frame offsets:
#	187
#	26245
#	48960
#	61227
#	83247
#	103625
#	131180
#	153842
#
# Disc length: 2356 seconds
#
# Revision: 3
# Processed by: cddbd v1.5.1PL0 Copyright (c) Steve Scherf et al.
# Submitted via: CDex 1.51
#
DISCID=63093208
DTITLE=The Bill Evans Trio - Moon Beams
DYEAR=1962
DGENRE=Jazz
TTITLE0=Re: Person I Knew
TTITLE1=Polka Dots And Moonbeams
TTITLE2=I Fall In Love Too Easily
TTITLE3=Stairway To The Stars
TTITLE4=If You Could See Me Now
TTITLE5=It Might As Well Be Spring
TTITLE6=In Love In Vain
TTITLE7=Very Early
EXTD=YEAR: 1962
EXTT0=
EXTT1=
EXTT2=
EXTT3=
EXTT4=
EXTT5=
EXTT6=
EXTT7=
PLAYORDER=
